HIERARCHY
ROOT Hips
{
	OFFSET 0.00000 0.00000 0.00000
	CHANNELS 6 Xposition Yposition Zposition Zrotation Yrotation Xrotation 
	JOINT LHipJoint
	{
		OFFSET 0 0 0
		CHANNELS 3 Zrotation Yrotation Xrotation
		JOINT LeftHip
		{
			OFFSET 1.59801 -1.77853 0.57028
			CHANNELS 3 Zrotation Yrotation Xrotation
			JOINT LeftKnee
			{
				OFFSET 2.39439 -6.57854 0.00000
				CHANNELS 3 Zrotation Yrotation Xrotation
				JOINT LeftAnkle
				{
					OFFSET 2.69334 -7.39989 0.00000
					CHANNELS 3 Zrotation Yrotation Xrotation
					JOINT LeftToe
					{
						OFFSET 0.09553 -0.26245 1.73747
						CHANNELS 3 Zrotation Yrotation Xrotation
						End Site
						{
							OFFSET 0.00000 -0.00000 0.89391
						}
					}
				}
			}
		}
	}
	JOINT RHipJoint
	{
		OFFSET 0 0 0
		CHANNELS 3 Zrotation Yrotation Xrotation
		JOINT RightHip
		{
			OFFSET -1.54704 -1.77852 0.57028
			CHANNELS 3 Zrotation Yrotation Xrotation
			JOINT RightKnee
			{
				OFFSET -2.40286 -6.60180 0.00000
				CHANNELS 3 Zrotation Yrotation Xrotation
				JOINT RightAnkle
				{
					OFFSET -2.63873 -7.24984 0.00000
					CHANNELS 3 Zrotation Yrotation Xrotation
					JOINT RightToe
					{
						OFFSET -0.15631 -0.42945 1.84436
						CHANNELS 3 Zrotation Yrotation Xrotation
						End Site
						{
							OFFSET -0.00000 -0.00000 0.95734
						}
					}
				}
			}
		}
	}
	JOINT lowerback
	{
		OFFSET 0 0 0
		CHANNELS 3 Zrotation Yrotation Xrotation
		JOINT Chest
		{
			OFFSET -0.00436 1.89866 -0.04018
			CHANNELS 3 Zrotation Yrotation Xrotation
			JOINT Chest2
			{
				OFFSET 0.02031 1.88273 0.09634
				CHANNELS 3 Zrotation Yrotation Xrotation
				JOINT lowerneck
				{
					OFFSET 0 0 0
					CHANNELS 3 Zrotation Yrotation Xrotation
					JOINT Neck
					{
						OFFSET -0.13105 1.89371 0.23083
						CHANNELS 3 Zrotation Yrotation Xrotation
						JOINT Head
						{
							OFFSET 0.17062 1.83990 -0.54062
							CHANNELS 3 Zrotation Yrotation Xrotation
							End Site
							{
								OFFSET 0.04576 1.94782 -0.21839
							}
						}
					}
				}
				JOINT LeftCollar
				{
					OFFSET 0 0 0
					CHANNELS 3 Zrotation Yrotation Xrotation
					JOINT LeftShoulder
					{
						OFFSET 3.12424 1.09204 0.22226
CHANNELS 3 Zrotation Xrotation Yrotation
						JOINT LeftElbow
						{
OFFSET 0 -5.292770 0.000000
CHANNELS 3 Zrotation Xrotation Yrotation
							JOINT LeftWrist
							{
OFFSET 0 -2.852260 0.000000
CHANNELS 3 Zrotation Xrotation Yrotation
								JOINT lhand
								{
									OFFSET 0 0 0
CHANNELS 3 Zrotation Xrotation Yrotation
									JOINT LFingers
									{
OFFSET 0 -0.602100 0.000000
CHANNELS 3 Zrotation Xrotation Yrotation
										End Site
										{
OFFSET 0 -0.485430 0.000000
										}
									}
								}
								JOINT LThumb
								{
OFFSET 0 0.000000 0.000000
CHANNELS 3 Zrotation Xrotation Yrotation
									End Site
									{
OFFSET 0 -0.492840 0.492840
									}
								}
							}
						}
					}
				}
				JOINT RightCollar
				{
					OFFSET 0 0 0
					CHANNELS 3 Zrotation Yrotation Xrotation
					JOINT RightShoulder
					{
						OFFSET -2.91709 1.01504 0.30199
CHANNELS 3 Zrotation Xrotation Yrotation
						JOINT RightElbow
						{
OFFSET 0 -5.133040 0.000000
CHANNELS 3 Zrotation Xrotation Yrotation
							JOINT RightWrist
							{
OFFSET 0 -2.743050 0.000000
CHANNELS 3 Zrotation Xrotation Yrotation
								JOINT rhand
								{
									OFFSET 0 0 0
CHANNELS 3 Zrotation Xrotation Yrotation
									JOINT RFingers
									{
OFFSET 0 -0.767980 0.000000
CHANNELS 3 Zrotation Xrotation Yrotation
										End Site
										{
OFFSET 0 -0.619160 0.000000
										}
									}
								}
								JOINT RThumb
								{
OFFSET 0 0.000000 0.000000
CHANNELS 3 Zrotation Xrotation Yrotation
									End Site
									{
OFFSET 0 -0.628620 0.628620
									}
								}
							}
						}
					}
				}
			}
		}
	}
}
MOTION
Frames: 5
Frame Time: 0.008333333333333333
0.388023 17.366703 0.156973 2.931408 -5.936262 2.094294 0.000000 0.000000 0.000000 -22.725056 -11.237210 0.403602 0.613862 5.014620 13.950235 0.430998 6.293117 -16.292630 0.675835 -5.256222 -14.641018 0.000000 0.000000 0.000000 14.537285 16.585368 -0.542648 -0.903173 -6.056409 16.948317 -0.482308 -5.522146 -16.302561 -0.640395 5.119462 -14.249698 3.303378 -1.567963 -1.797667 4.332891 -2.006395 -3.681016 2.627777 -1.029328 -2.741792 -14.870148 -8.038422 -11.623548 6.441550 -9.884516 24.816829 3.451288 -5.238510 11.041501 0.000000 0.000000 0.000000 29.345533 -36.727380 -37.743972 124.335892 -55.038524 89.240283 -3.486491 -17.711069 -35.435766 0.000000 0.000000 0.000000 -7.125000 0.000000 0.000000 -42.337201 60.140497 17.464591 0.000000 0.000000 0.000000 -7.743527 6.380798 31.732495 -18.213936 -28.430156 -4.650628 8.335583 18.589016 -13.170852 0.000000 0.000000 0.000000 7.125000 0.000000 0.000000 24.006115 17.223428 17.432024
0.418248 17.348171 0.165320 2.951784 -6.858964 1.651113 0.000000 0.000000 0.000000 -22.897998 -10.243988 0.392988 0.653369 5.170102 14.394455 0.469314 6.112936 -16.614807 0.704393 -5.362535 -14.945947 0.000000 0.000000 0.000000 14.545589 17.209912 -0.409337 -0.980100 -6.301918 17.662954 -0.524779 -5.185132 -16.562593 -0.634081 5.094424 -14.178120 3.228804 -1.943652 -2.021329 4.935328 -2.517745 -3.604908 3.286154 -1.274794 -2.498248 -14.686840 -7.436854 -11.968590 5.209452 -8.717234 25.626133 3.142476 -4.841217 11.206842 0.000000 0.000000 0.000000 28.310975 -39.352681 -39.726317 117.616894 -56.910021 83.668586 -4.416603 -16.187098 -34.486660 0.000000 0.000000 0.000000 -7.125000 0.000000 0.000000 -42.154561 59.206751 16.410906 0.000000 0.000000 0.000000 -8.515266 6.255770 31.841536 -19.086769 -29.526250 -5.073538 9.088159 17.968610 -12.525697 0.000000 0.000000 0.000000 7.125000 0.000000 0.000000 24.574634 17.804272 17.584113
0.451575 17.345020 0.183559 2.627672 -8.010872 1.418957 0.000000 0.000000 0.000000 -22.760427 -9.750683 0.530742 0.686523 5.297265 14.758299 0.539898 6.224205 -17.538315 0.463544 -4.365640 -12.108011 0.000000 0.000000 0.000000 14.878608 17.739976 0.077471 -0.946782 -6.196851 17.356627 -0.527885 -4.816328 -16.331829 -0.660642 5.198464 -14.475559 3.870512 -2.086657 -2.392456 5.062582 -2.736955 -3.597428 3.044319 -1.398415 -2.300997 -14.029408 -6.922302 -12.017786 4.671178 -8.011799 26.237667 2.948890 -4.537561 11.307373 0.000000 0.000000 0.000000 25.478521 -40.151936 -44.446500 107.907599 -58.747628 75.442731 -4.184351 -11.365171 -32.829937 0.000000 0.000000 0.000000 -7.125000 0.000000 0.000000 -40.226064 57.988453 14.286038 0.000000 0.000000 0.000000 -8.476320 6.364836 31.573960 -19.366530 -29.871515 -5.212081 9.968499 18.031609 -12.790979 0.000000 0.000000 0.000000 7.125000 0.000000 0.000000 25.078891 17.540213 18.194124
0.483150 17.336292 0.196987 2.570021 -8.965136 0.955312 0.000000 0.000000 0.000000 -22.922519 -9.160017 0.841710 0.715079 5.403972 15.064524 0.580025 6.377236 -18.111951 0.405040 -4.085744 -11.317952 0.000000 0.000000 0.000000 14.931461 17.812952 0.465166 -0.948103 -6.201005 17.368787 -0.544053 -4.275414 -16.151254 -0.744294 5.510936 -15.371770 3.935832 -2.433215 -2.278820 5.145049 -3.198697 -3.486855 3.093741 -1.629757 -2.238591 -13.626130 -6.430463 -12.601794 4.650213 -7.336314 26.833506 2.968343 -4.202811 11.553266 0.000000 0.000000 0.000000 19.805893 -39.528515 -48.808150 94.236720 -59.931507 63.668285 -6.871437 -8.130691 -32.907285 0.000000 0.000000 0.000000 -7.125000 0.000000 0.000000 -42.772032 57.463324 14.850965 0.000000 0.000000 0.000000 -8.564643 6.179978 31.774740 -19.262600 -29.743726 -5.160444 10.031035 18.180083 -12.828727 0.000000 0.000000 0.000000 7.125000 0.000000 0.000000 25.111366 17.504001 18.245949
0.508698 17.320325 0.194478 2.515554 -9.906357 0.526456 0.000000 0.000000 0.000000 -23.024544 -8.515807 0.908399 0.762675 5.577138 15.562265 0.611012 6.501366 -18.549226 0.396155 -4.040916 -11.191842 0.000000 0.000000 0.000000 14.954264 17.954254 0.463247 -1.001678 -6.368873 17.858548 -0.586275 -3.510073 -16.166461 -0.771295 5.607621 -15.650187 3.996585 -2.640509 -2.329558 4.781949 -3.502735 -3.182522 2.667523 -1.783973 -1.912967 -13.095963 -6.075617 -12.863588 5.406584 -7.145131 26.913760 3.191824 -3.974722 11.609252 0.000000 0.000000 0.000000 14.418830 -38.406886 -52.634608 77.694948 -59.412731 49.365030 -7.217528 -1.957010 -31.803207 0.000000 0.000000 0.000000 -7.125000 0.000000 0.000000 -42.010645 56.549522 13.542632 0.000000 0.000000 0.000000 -7.922382 5.857185 31.761723 -19.151280 -29.606221 -5.105336 10.257324 18.263200 -12.912697 0.000000 0.000000 0.000000 7.125000 0.000000 0.000000 25.237178 17.421094 18.411543
